<svg xmlns="http://www.w3.org/2000/svg" viewBox="0 0 120 60" width="120" height="60">
  <!-- RS Logo for Riddhi Siddhi Art -->
  <defs>
    <linearGradient id="logoGrad" x1="0%" y1="0%" x2="100%" y2="100%">
      <stop offset="0%" style="stop-color:#1a5f4a"/>
      <stop offset="100%" style="stop-color:#0d3d2e"/>
    </linearGradient>
  </defs>
  
  <!-- R letter stylized -->
  <path d="M5 5 L5 55 L15 55 L15 35 L25 35 L35 55 L47 55 L35 32 C42 30 47 24 47 16 C47 8 40 5 30 5 L5 5 Z M15 14 L28 14 C34 14 37 16 37 20 C37 24 34 26 28 26 L15 26 Z" fill="white"/>
  
  <!-- S letter stylized -->
  <path d="M55 5 C45 5 38 10 38 18 C38 26 44 29 55 31 C64 33 67 35 67 40 C67 45 63 48 55 48 C47 48 42 44 42 38 L32 38 C32 50 42 57 55 57 C68 57 77 50 77 40 C77 31 70 28 58 26 C50 24 48 22 48 18 C48 14 52 12 55 12 C60 12 64 15 64 20 L74 20 C74 10 66 5 55 5 Z" fill="white"/>
</svg>
